:FULLY-SPECIFIED
:FORCE-ALL-JOINTS-BE-3DOF
:DEGREES
544
root 8.2429 13.9005 -3.54485 -180.878 45.4719 -182.893
lfemur -34.5041 -6.58983 -15.8642
ltibia 90.561 0 0
lfoot -38.6796 -12.0161 0
ltoes -4.42348 0 0
rfemur -48.976 -6.81241 -4.423
rtibia 65.1458 0 0
rfoot -9.68123 0.685231 0
rtoes -39.3344 0 0
lowerback 13.4509 0.816162 2.06814
upperback 7.09701 2.31437 7.15773
thorax -0.293684 1.45649 6.06078
lowerneck -2.14381 -15.93 -6.11183
upperneck 8.8302 -21.5909 8.65298
head 4.60172 -10.452 2.29102
lclavicle 8.38063e-14 1.14171e-14 0
lhumerus -45.7061 -13.3956 105.04
lradius 56.0926 0 0
lwrist 30.952 0 0
lhand -24.0454 -3.04482 0
lfingers 7.12502 0 0
lthumb 2.43573 26.945 0
rclavicle 8.38063e-14 1.14171e-14 0
rhumerus 6.0872 18.2164 -88.6086
rradius 135.602 0 0
rwrist -46.3592 0 0
rhand -28.8451 -22.8947 0
rfingers 7.12502 0 0
rthumb -2.19902 -772.906 0
545
root 8.27774 13.896 -3.51625 -180.821 45.7133 -182.872
lfemur -34.3022 -6.4697 -15.573
ltibia 90.2112 0 0
lfoot -38.9927 -12.6076 0
ltoes -4.08077 0 0
rfemur -49.0719 -7.2475 -3.94018
rtibia 65.5936 0 0
rfoot -10.2414 0.45583 0
rtoes -39.1975 0 0
lowerback 13.3207 0.752846 1.94745
upperback 7.07357 2.20431 7.04477
thorax -0.235639 1.39812 6.02366
lowerneck -2.0332 -15.8289 -5.99966
upperneck 8.60338 -21.4683 8.72082
head 4.50375 -10.3952 2.32648
lclavicle 8.93914e-14 1.00781e-14 0
lhumerus -45.8275 -12.6793 104.413
lradius 55.7921 0 0
lwrist 31.2026 0 0
lhand -24.1792 -2.85848 0
lfingers 7.12502 0 0
lthumb 2.30525 27.1156 0
rclavicle 8.93914e-14 1.00781e-14 0
rhumerus 5.78682 18.8781 -89.0098
rradius 135.208 0 0
rwrist -45.6513 0 0
rhand -28.8993 -22.8548 0
rfingers 7.12502 0 0
rthumb -2.25303 -772.839 0
546
root 8.31086 13.9038 -3.48475 -180.744 46.0232 -182.862
lfemur -34.0181 -6.23974 -15.3029
ltibia 89.6735 0 0
lfoot -39.296 -13.0569 0
ltoes -3.80316 0 0
rfemur -49.116 -7.68621 -3.4155
rtibia 65.7308 0 0
rfoot -10.6058 0.311456 0
rtoes -39.1129 0 0
lowerback 13.1659 0.682378 1.8122
upperback 7.03211 2.08008 6.92683
thorax -0.181707 1.33131 5.99068
lowerneck -1.92922 -15.7311 -5.88891
upperneck 8.39336 -21.3494 8.77299
head 4.41016 -10.3401 2.35614
lclavicle 9.43441e-14 8.40249e-15 0
lhumerus -45.9299 -11.9438 103.746
lradius 55.5002 0 0
lwrist 31.415 0 0
lhand -24.3751 -2.72266 0
lfingers 7.12502 0 0
lthumb 2.11526 27.2448 0
rclavicle 9.43441e-14 8.40249e-15 0
rhumerus 5.77306 19.4043 -89.2723
rradius 134.908 0 0
rwrist -45.1168 0 0
rhand -29.0326 -22.8364 0
rfingers 7.12502 0 0
rthumb -2.38283 -772.804 0
547
root 8.3426 13.9245 -3.44966 -180.653 46.3973 -182.868
lfemur -33.6469 -5.88619 -15.0556
ltibia 88.9407 0 0
lfoot -39.5906 -13.3481 0
ltoes -3.60323 0 0
rfemur -49.0997 -8.13052 -2.84987
rtibia 65.5231 0 0
rfoot -10.7566 0.259778 0
rtoes -39.0929 0 0
lowerback 12.986 0.604552 1.66225
upperback 6.9725 1.94136 6.80527
thorax -0.131767 1.25582 5.96331
lowerneck -1.83125 -15.6388 -5.78109
upperneck 8.20244 -21.237 8.80926
head 4.32172 -10.2881 2.37983
lclavicle 9.85972e-14 6.36111e-15 0
lhumerus -46.01 -11.1851 103.032
lradius 55.2192 0 0
lwrist 31.5909 0 0
lhand -24.6475 -2.6444 0
lfingers 7.12502 0 0
lthumb 1.85197 27.3273 0
rclavicle 9.85972e-14 6.36111e-15 0
rhumerus 6.08594 19.7702 -89.381
rradius 134.72 0 0
rwrist -44.7914 0 0
rhand -29.263 -22.8451 0
rfingers 7.12502 0 0
rthumb -2.6057 -772.809 0
548
root 8.37009 13.9572 -3.41679 -180.599 46.811 -182.938
lfemur -33.2217 -5.47082 -14.8513
ltibia 88.0589 0 0
lfoot -39.8497 -13.5015 0
ltoes -3.47622 0 0
rfemur -49.0457 -8.51733 -2.28957
rtibia 64.9813 0 0
rfoot -10.6853 0.307583 0
rtoes -39.1394 0 0
lowerback 12.7962 0.525299 1.51307
upperback 6.89539 1.79819 6.68614
thorax -0.0945775 1.17711 5.93827
lowerneck -1.75113 -15.5531 -5.68048
upperneck 8.03765 -21.1309 8.81948
head 4.24217 -10.2394 2.39392
lclavicle 1.01877e-13 4.05909e-15 0
lhumerus -46.1092 -10.4565 102.374
lradius 54.971 0 0
lwrist 31.6824 0 0
lhand -24.9302 -2.62489 0
lfingers 7.12502 0 0
lthumb 1.57914 27.3562 0
rclavicle 1.01877e-13 4.05909e-15 0
rhumerus 6.61361 20.013 -89.3497
rradius 134.604 0 0
rwrist -44.5974 0 0
rhand -29.5132 -22.8669 0
rfingers 7.12502 0 0
rthumb -2.84733 -772.834 0
549
root 8.3903 14.0004 -3.39198 -180.62 47.2459 -183.104
lfemur -32.7788 -5.06358 -14.706
ltibia 87.0812 0 0
lfoot -40.0479 -13.5509 0
ltoes -3.40472 0 0
rfemur -48.9826 -8.7895 -1.77612
rtibia 64.1588 0 0
rfoot -10.4063 0.451119 0
rtoes -39.2391 0 0
lowerback 12.611 0.450387 1.37866
upperback 6.80211 1.66035 6.57381
thorax -0.0777489 1.10056 5.91138
lowerneck -1.69995 -15.4732 -5.58973
upperneck 7.90357 -21.0286 8.79555
head 4.17436 -10.1931 2.39553
lclavicle 1.04007e-13 1.63671e-15 0
lhumerus -46.2637 -9.81336 101.866
lradius 54.7733 0 0
lwrist 31.6477 0 0
lhand -25.1498 -2.65709 0
lfingers 7.12502 0 0
lthumb 1.36717 27.3315 0
rclavicle 1.04007e-13 1.63671e-15 0
rhumerus 7.21391 20.1897 -89.2076
rradius 134.505 0 0
rwrist -44.4321 0 0
rhand -29.6971 -22.8838 0
rfingers 7.12502 0 0
rthumb -3.0249 -772.854 0
550
root 8.40336 14.0533 -3.37453 -180.7 47.7072 -183.347
lfemur -32.3182 -4.66295 -14.6156
ltibia 86.0112 0 0
lfoot -40.1884 -13.5001 0
ltoes -3.38232 0 0
rfemur -48.9111 -8.95797 -1.30326
rtibia 63.0855 0 0
rfoot -9.93579 0.682252 0
rtoes -39.3814 0 0
lowerback 12.4289 0.379368 1.25672
upperback 6.69353 1.52719 6.46716
thorax -0.0794365 1.02584 5.88281
lowerneck -1.67603 -15.3985 -5.50786
upperneck 7.7988 -20.9295 8.7403
head 4.11775 -10.1488 2.3856
lclavicle 1.05068e-13 -8.82349e-16 0
lhumerus -46.4627 -9.25391 101.492
lradius 54.6217 0 0
lwrist 31.4976 0 0
lhand -25.3102 -2.73572 0
lfingers 7.12502 0 0
lthumb 1.21233 27.2588 0
rclavicle 1.05068e-13 -8.82349e-16 0
rhumerus 7.88139 20.3051 -88.9622
rradius 134.421 0 0
rwrist -44.2936 0 0
rhand -29.8193 -22.8955 0
rfingers 7.12502 0 0
rthumb -3.14294 -772.868 0
551
root 8.40943 14.1153 -3.36379 -180.822 48.1998 -183.647
lfemur -31.8398 -4.26743 -14.576
ltibia 84.8526 0 0
lfoot -40.2742 -13.3527 0
ltoes -3.40262 0 0
rfemur -48.832 -9.03367 -0.864737
rtibia 61.7911 0 0
rfoot -9.29018 0.992849 0
rtoes -39.5558 0 0
lowerback 12.2485 0.311791 1.14495
upperback 6.57055 1.39803 6.36502
thorax -0.0977958 0.952636 5.8527
lowerneck -1.67765 -15.3281 -5.4339
upperneck 7.72198 -20.8331 8.65656
head 4.07182 -10.1061 2.36507
lclavicle 1.05141e-13 -3.47443e-15 0
lhumerus -46.6954 -8.77655 101.235
lradius 54.5116 0 0
lwrist 31.243 0 0
lhand -25.4154 -2.85545 0
lfingers 7.12502 0 0
lthumb 1.11085 27.1434 0
rclavicle 1.05141e-13 -3.47443e-15 0
rhumerus 8.61061 20.364 -88.6213
rradius 134.352 0 0
rwrist -44.1795 0 0
rhand -29.8846 -22.9014 0
rfingers 7.12502 0 0
rthumb -3.20599 -772.875 0
552
root 8.40863 14.1858 -3.35909 -180.967 48.7287 -183.986
lfemur -31.3436 -3.87549 -14.5832
ltibia 83.6092 0 0
lfoot -40.3085 -13.1127 0
ltoes -3.45923 0 0
rfemur -48.746 -9.02756 -0.454313
rtibia 60.3054 0 0
rfoot -8.48579 1.37478 0
rtoes -39.7518 0 0
lowerback 12.0683 0.247207 1.04104
upperback 6.43404 1.27219 6.26626
thorax -0.130982 0.880626 5.82121
lowerneck -1.70313 -15.2614 -5.36688
upperneck 7.67172 -20.7388 8.54715
head 4.03605 -10.0647 2.33487
lclavicle 1.04305e-13 -6.11588e-15 0
lhumerus -46.951 -8.37964 101.079
lradius 54.4386 0 0
lwrist 30.8946 0 0
lhand -25.4691 -3.01098 0
lfingers 7.12502 0 0
lthumb 1.05897 26.9907 0
rclavicle 1.04305e-13 -6.11588e-15 0
rhumerus 9.39612 20.3712 -88.1923
rradius 134.295 0 0
rwrist -44.0878 0 0
rhand -29.8976 -22.9011 0
rfingers 7.12502 0 0
rthumb -3.21857 -772.877 0
553
root 8.40112 14.2642 -3.35975 -181.12 49.2991 -184.343
lfemur -30.8296 -3.48562 -14.6328
ltibia 82.2845 0 0
lfoot -40.2944 -12.7837 0
ltoes -3.54575 0 0
rfemur -48.6538 -8.95058 -0.0657334
rtibia 58.6582 0 0
rfoot -7.53894 1.8199 0
rtoes -39.9587 0 0
lowerback 11.887 0.185168 0.942706
upperback 6.28491 1.14902 6.16973
thorax -0.177151 0.809489 5.78847
lowerneck -1.75077 -15.1975 -5.30582
upperneck 7.64664 -20.6459 8.41489
head 4.0099 -10.024 2.29595
lclavicle 1.02642e-13 -8.78302e-15 0
lhumerus -47.2185 -8.06153 101.008
lradius 54.3983 0 0
lwrist 30.4633 0 0
lhand -25.4754 -3.197 0
lfingers 7.12502 0 0
lthumb 1.05295 26.8062 0
rclavicle 1.02642e-13 -8.78302e-15 0
rhumerus 10.2325 20.3316 -87.6829
rradius 134.25 0 0
rwrist -44.0165 0 0
rhand -29.8631 -22.894 0
rfingers 7.12502 0 0
rthumb -3.18523 -772.871 0
554
root 8.38702 14.3497 -3.36511 -181.263 49.9159 -184.702
lfemur -30.2978 -3.09632 -14.7209
ltibia 80.8822 0 0
lfoot -40.2349 -12.3696 0
ltoes -3.65576 0 0
rfemur -48.5561 -8.81367 0.30725
rtibia 56.8791 0 0
rfoot -6.46596 2.32009 0
rtoes -40.166 0 0
lowerback 11.7029 0.125223 0.847639
upperback 6.12402 1.02783 6.07429
thorax -0.234457 0.738906 5.75465
lowerneck -1.81885 -15.1357 -5.24976
upperneck 7.64536 -20.5539 8.26263
head 3.99286 -9.98373 2.24923
lclavicle 1.00231e-13 -1.14522e-14 0
lhumerus -47.4873 -7.82059 101.005
lradius 54.3863 0 0
lwrist 29.9598 0 0
lhand -25.4381 -3.4082 0
lfingers 7.12502 0 0
lthumb 1.08902 26.5953 0
rclavicle 1.00231e-13 -1.14522e-14 0
rhumerus 11.1142 20.25 -87.1007
rradius 134.215 0 0
rwrist -43.9632 0 0
rhand -29.7857 -22.8797 0
rfingers 7.12502 0 0
rthumb -3.11048 -772.857 0
555
root 8.36648 14.4418 -3.37449 -181.378 50.5843 -185.041
lfemur -29.748 -2.70606 -14.8433
ltibia 79.4061 0 0
lfoot -40.1332 -11.8742 0
ltoes -3.78288 0 0
rfemur -48.4536 -8.62776 0.670886
rtibia 54.998 0 0
rfoot -5.28317 2.8672 0
rtoes -40.3632 0 0
lowerback 11.5148 0.0669247 0.753541
upperback 5.95228 0.907953 5.97879
thorax -0.301057 0.668557 5.71989
lowerneck -1.90569 -15.0753 -5.19771
upperneck 7.6665 -20.4622 8.09318
head 3.98438 -9.94351 2.19566
lclavicle 9.71527e-14 -1.40997e-14 0
lhumerus -47.7465 -7.65516 101.055
lradius 54.3981 0 0
lwrist 29.3949 0 0
lhand -25.361 -3.63928 0
lfingers 7.12502 0 0
lthumb 1.16344 26.3634 0
rclavicle 9.71527e-14 -1.40997e-14 0
rhumerus 12.0359 20.1312 -86.4534
rradius 134.188 0 0
rwrist -43.926 0 0
rhand -29.6702 -22.8576 0
rfingers 7.12502 0 0
rthumb -2.99887 -772.836 0
